<svg version="1.1" id="Layer_1" xmlns="http://www.w3.org/2000/svg" xmlns:xlink="http://www.w3.org/1999/xlink" x="0px" y="0px"
	 width="100%" viewBox="0 0 500 500" enable-background="new 0 0 500 500" xml:space="preserve">
<path fill="#222222" opacity="1.000000" stroke="none" 
	d="
M234.000000,501.000000 
	C156.000015,501.000000 78.500038,501.000000 1.000041,501.000000 
	C1.000028,334.333405 1.000028,167.666779 1.000014,1.000131 
	C167.666565,1.000087 334.333130,1.000087 500.999756,1.000044 
	C500.999847,167.666519 500.999847,334.333038 500.999939,500.999786 
	C412.166656,501.000000 323.333344,501.000000 234.000000,501.000000 
M331.506226,374.032715 
	C339.193115,365.671509 345.393585,356.714905 341.922394,344.504303 
	C340.794708,340.537476 339.214539,336.642609 337.378204,332.944855 
	C332.474121,323.069794 332.131592,313.007629 334.549011,302.368256 
	C338.269470,285.994049 346.534485,271.748962 354.640625,257.420441 
	C362.126495,244.188232 366.347534,230.506516 364.381561,214.982407 
	C361.396545,191.411789 363.766632,168.171921 370.190704,145.280716 
	C372.430817,137.298340 374.303986,129.149597 375.495544,120.953377 
	C376.803314,111.957924 372.135742,107.140656 363.045685,106.837486 
	C355.084930,106.571983 348.491302,109.846664 342.675323,114.891052 
	C334.859467,121.669998 329.602203,130.273911 325.185486,139.530090 
	C320.226837,149.921997 319.899902,161.096344 319.083832,172.211823 
	C318.168793,184.675034 313.919769,195.767792 305.595917,205.777008 
	C302.698273,202.416595 300.168182,199.155594 297.305481,196.218796 
	C284.545776,183.128784 271.815125,170.006210 258.831482,157.140091 
	C248.360031,146.763428 220.511444,153.590042 218.691177,169.698746 
	C201.688156,166.605072 190.354828,173.462204 188.348358,188.228638 
	C178.126999,187.895340 168.985123,190.100937 163.579117,200.154510 
	C162.358429,199.191498 161.458450,198.463577 160.540085,197.759659 
	C147.335388,187.638397 134.426743,177.090439 120.775909,167.611435 
	C115.250229,163.774460 108.292099,160.964493 101.651413,160.007416 
	C91.208221,158.502319 83.467575,169.355530 87.989677,178.957306 
	C90.890015,185.115601 95.073273,191.268112 100.185768,195.680054 
	C119.821686,212.625366 140.101456,228.823074 160.034866,245.427124 
	C162.501114,247.481445 164.947601,249.992279 166.358856,252.813934 
	C181.814865,283.716461 199.305725,313.180054 223.598099,338.194489 
	C233.345795,348.231903 239.689423,359.847839 239.221161,374.728088 
	C238.756271,389.500763 244.823959,396.676483 259.574738,398.894470 
	C287.425476,403.082123 310.840668,393.339874 331.506226,374.032715 
z"/>
<path fill="#E4E1E1" opacity="1.000000" stroke="none" 
	d="
M331.253906,374.275146 
	C310.840668,393.339874 287.425476,403.082123 259.574738,398.894470 
	C244.823959,396.676483 238.756271,389.500763 239.221161,374.728088 
	C239.689423,359.847839 233.345795,348.231903 223.598099,338.194489 
	C199.305725,313.180054 181.814865,283.716461 166.358856,252.813934 
	C164.947601,249.992279 162.501114,247.481445 160.034866,245.427124 
	C140.101456,228.823074 119.821686,212.625366 100.185768,195.680054 
	C95.073273,191.268112 90.890015,185.115601 87.989677,178.957306 
	C83.467575,169.355530 91.208221,158.502319 101.651413,160.007416 
	C108.292099,160.964493 115.250229,163.774460 120.775909,167.611435 
	C134.426743,177.090439 147.335388,187.638397 160.540085,197.759659 
	C161.458450,198.463577 162.358429,199.191498 163.579117,200.154510 
	C168.985123,190.100937 178.126999,187.895340 188.348358,188.228638 
	C190.354828,173.462204 201.688156,166.605072 218.691177,169.698746 
	C220.511444,153.590042 248.360031,146.763428 258.831482,157.140091 
	C271.815125,170.006210 284.545776,183.128784 297.305481,196.218796 
	C300.168182,199.155594 302.698273,202.416595 305.595917,205.777008 
	C313.919769,195.767792 318.168793,184.675034 319.083832,172.211823 
	C319.899902,161.096344 320.226837,149.921997 325.185486,139.530090 
	C329.602203,130.273911 334.859467,121.669998 342.675323,114.891052 
	C348.491302,109.846664 355.084930,106.571983 363.045685,106.837486 
	C372.135742,107.140656 376.803314,111.957924 375.495544,120.953377 
	C374.303986,129.149597 372.430817,137.298340 370.190704,145.280716 
	C363.766632,168.171921 361.396545,191.411789 364.381561,214.982407 
	C366.347534,230.506516 362.126495,244.188232 354.640625,257.420441 
	C346.534485,271.748962 338.269470,285.994049 334.549011,302.368256 
	C332.131592,313.007629 332.474121,323.069794 337.378204,332.944855 
	C339.214539,336.642609 340.794708,340.537476 341.922394,344.504303 
	C345.393585,356.714905 339.193115,365.671509 331.253906,374.275146 
M235.943451,342.987457 
	C235.785706,343.488556 235.627960,343.989655 235.806076,345.085999 
	C242.095383,353.770752 244.394638,363.538910 244.360214,374.169556 
	C244.318619,387.016693 248.456009,392.428955 261.224884,393.847595 
	C290.996674,397.155273 315.237946,386.445129 333.705017,362.927460 
	C338.384308,356.968414 338.769165,350.116425 336.048798,343.072968 
	C332.311005,333.395294 326.538422,324.327362 328.019257,311.842773 
	C325.885376,314.192566 324.916840,315.254059 323.953674,316.320374 
	C312.275360,329.249023 298.176849,333.366791 282.637787,327.107635 
	C276.889069,324.792084 274.369598,326.406158 270.925659,330.553864 
	C262.010498,341.290833 250.776413,346.639282 235.943451,342.987457 
M325.562408,157.333282 
	C325.051361,163.461670 324.738159,169.614258 323.991974,175.713882 
	C321.805634,193.586838 313.583832,208.163086 299.316101,219.145050 
	C297.743561,220.355423 295.052307,220.112396 292.879913,220.543457 
	C293.867767,218.749924 294.870178,216.964066 295.826111,215.153671 
	C295.952972,214.913437 295.843536,214.548416 295.843536,213.060699 
	C289.847412,214.683594 284.171143,216.219910 278.538391,217.744446 
	C280.504028,224.624176 282.559174,230.120438 283.597290,235.802521 
	C285.785492,247.779617 279.016632,256.173981 267.226105,256.787170 
	C268.969757,276.868530 256.198547,283.631683 240.410919,275.859619 
	C240.124771,276.630432 239.861191,277.385223 239.566467,278.127655 
	C236.189941,286.633789 230.504486,290.859863 222.864319,288.874420 
	C218.092575,287.634399 212.972977,285.095398 209.607681,281.600403 
	C201.222229,272.891693 193.076523,263.783295 186.073380,253.952835 
	C176.076782,239.920471 166.141663,225.630127 163.139297,207.971024 
	C162.904022,206.587189 161.483673,205.184128 160.271423,204.221603 
	C149.462158,195.639175 138.843460,186.778366 127.616013,178.774796 
	C120.388039,173.622284 112.401413,169.428787 104.418221,165.487198 
	C100.657349,163.630310 96.503036,164.871017 93.671402,168.470840 
	C90.906624,171.985672 91.335136,175.884781 93.588928,179.192169 
	C96.746643,183.826019 99.933029,188.740570 104.148705,192.302231 
	C124.338768,209.360107 144.900101,225.978043 165.263168,242.832474 
	C167.126526,244.374771 168.912796,246.270233 170.060303,248.370270 
	C174.040878,255.655197 177.516815,263.218201 181.559128,270.466614 
	C193.154022,291.257751 205.348373,311.705566 222.324463,328.682312 
	C238.300491,344.658936 259.126068,341.635315 270.873291,321.745331 
	C268.741455,320.266693 266.373230,318.985779 264.517365,317.178680 
	C263.638367,316.322815 263.738953,314.460907 263.395752,313.054779 
	C264.735626,313.020538 266.324097,312.507172 267.365814,313.047638 
	C269.856354,314.339905 272.030029,316.225220 274.435822,317.701355 
	C292.401123,328.724304 309.173248,326.630859 321.126831,311.386322 
	C324.982758,306.468811 328.022064,300.807739 330.811707,295.177979 
	C337.369171,281.944305 343.080658,268.273956 350.017517,255.250671 
	C356.847107,242.428864 361.012939,229.495651 359.134033,214.699509 
	C355.811768,188.536957 359.336670,162.954712 366.779449,137.769882 
	C368.509399,131.916061 369.532104,125.796692 370.277679,119.725510 
	C370.929810,114.415558 368.904083,112.455147 363.543243,112.079414 
	C356.596771,111.592545 350.809662,114.406647 345.952362,119.023430 
	C335.163177,129.278366 328.099487,141.639282 325.562408,157.333282 
M230.901810,188.604568 
	C238.362717,203.628128 245.661758,218.735504 253.373566,233.629166 
	C256.021729,238.743500 259.249359,243.717545 263.022827,248.049622 
	C267.913269,253.663940 275.317688,252.090439 277.423462,244.940750 
	C278.527527,241.192200 278.654266,236.516083 277.449036,232.840302 
	C272.789856,218.630188 267.414490,204.654999 262.313721,190.589447 
	C261.747314,189.027573 260.955292,187.475967 260.788910,185.865784 
	C260.678864,184.800659 261.499908,183.639328 261.904114,182.521072 
	C263.080658,183.103546 264.865784,183.388565 265.322479,184.322891 
	C266.844971,187.437561 267.856384,190.798721 269.132355,194.038376 
	C269.935577,196.077896 270.861572,198.069092 272.250885,201.280151 
	C273.109283,197.873520 273.267395,195.667068 274.225281,193.892288 
	C275.168488,192.144699 276.922455,190.834686 278.320709,189.332703 
	C278.617249,191.232864 279.273651,193.158234 279.142578,195.028427 
	C278.754486,200.564499 278.055603,206.078796 277.481293,211.572876 
	C285.686249,210.271927 292.867004,209.133392 300.285553,207.957138 
	C299.055695,206.445557 297.996094,204.964874 296.759369,203.650955 
	C284.807220,190.953064 272.932922,178.179291 260.816620,165.639511 
	C251.764771,156.271317 243.733627,155.035645 231.918228,160.562149 
	C225.360168,163.629608 222.987885,168.242584 225.132523,175.158066 
	C226.497101,179.558182 228.700027,183.698318 230.901810,188.604568 
M258.551453,251.162704 
	C256.502899,248.346466 254.027344,245.746399 252.474609,242.679169 
	C241.898651,221.787750 231.408722,200.850525 221.185867,179.785004 
	C219.600327,176.517807 217.679062,174.480484 214.296112,174.271225 
	C207.434479,173.846741 200.698486,175.042816 196.082748,180.455215 
	C191.673096,185.625961 194.341995,191.496460 196.288696,197.006622 
	C196.563828,197.785400 196.944687,198.532547 197.331924,199.265106 
	C201.677231,207.485245 205.779099,215.847305 210.444885,223.881729 
	C217.857254,236.645645 225.460495,249.308670 233.359589,261.775726 
	C237.183960,267.811707 242.687637,272.163208 249.981232,273.631134 
	C255.379166,274.717560 259.526215,272.309143 261.198700,267.036713 
	C262.914093,261.629150 261.981476,256.543854 258.551453,251.162704 
M206.313019,227.261215 
	C201.571594,218.305374 196.618057,209.453537 192.158493,200.359482 
	C188.826004,193.563858 187.026291,192.362350 179.645798,194.049759 
	C170.476898,196.146027 167.201294,201.111145 168.933640,210.439041 
	C169.295593,212.387985 169.722946,214.378601 170.496689,216.189117 
	C180.754959,240.193161 195.521606,261.109955 214.453552,278.998932 
	C217.156219,281.552734 221.313080,283.026093 225.053741,283.899048 
	C229.119049,284.847748 232.193481,282.005066 233.576492,278.434631 
	C234.480515,276.100739 235.154938,272.165863 233.898956,270.743469 
	C222.532288,257.870697 215.109299,242.576782 206.313019,227.261215 
z"/>
<path fill="#242424" opacity="1.000000" stroke="none" 
	d="
M325.595154,156.892563 
	C328.099487,141.639282 335.163177,129.278366 345.952362,119.023430 
	C350.809662,114.406647 356.596771,111.592545 363.543243,112.079414 
	C368.904083,112.455147 370.929810,114.415558 370.277679,119.725510 
	C369.532104,125.796692 368.509399,131.916061 366.779449,137.769882 
	C359.336670,162.954712 355.811768,188.536957 359.134033,214.699509 
	C361.012939,229.495651 356.847107,242.428864 350.017517,255.250671 
	C343.080658,268.273956 337.369171,281.944305 330.811707,295.177979 
	C328.022064,300.807739 324.982758,306.468811 321.126831,311.386322 
	C309.173248,326.630859 292.401123,328.724304 274.435822,317.701355 
	C272.030029,316.225220 269.856354,314.339905 267.365814,313.047638 
	C266.324097,312.507172 264.735626,313.020538 263.395752,313.054810 
	C263.738953,314.460907 263.638367,316.322815 264.517365,317.178680 
	C266.373230,318.985779 268.741455,320.266693 270.873291,321.745331 
	C259.126068,341.635315 238.300491,344.658936 222.324463,328.682312 
	C205.348373,311.705566 193.154022,291.257751 181.559128,270.466614 
	C177.516815,263.218201 174.040878,255.655197 170.060303,248.370270 
	C168.912796,246.270233 167.126526,244.374771 165.263168,242.832474 
	C144.900101,225.978043 124.338768,209.360107 104.148705,192.302231 
	C99.933029,188.740570 96.746643,183.826019 93.588928,179.192169 
	C91.335136,175.884781 90.906624,171.985672 93.671402,168.470840 
	C96.503036,164.871017 100.657349,163.630310 104.418221,165.487198 
	C112.401413,169.428787 120.388039,173.622284 127.616013,178.774796 
	C138.843460,186.778366 149.462158,195.639175 160.271423,204.221603 
	C161.483673,205.184128 162.904022,206.587189 163.139297,207.971024 
	C166.141663,225.630127 176.076782,239.920471 186.073380,253.952835 
	C193.076523,263.783295 201.222229,272.891693 209.607681,281.600403 
	C212.972977,285.095398 218.092575,287.634399 222.864319,288.874420 
	C230.504486,290.859863 236.189941,286.633789 239.566467,278.127655 
	C239.861191,277.385223 240.124771,276.630432 240.410919,275.859619 
	C256.198547,283.631683 268.969757,276.868530 267.226105,256.787170 
	C279.016632,256.173981 285.785492,247.779617 283.597290,235.802521 
	C282.559174,230.120438 280.504028,224.624176 278.538391,217.744446 
	C284.171143,216.219910 289.847412,214.683594 295.843536,213.060699 
	C295.843536,214.548416 295.952972,214.913437 295.826111,215.153671 
	C294.870178,216.964066 293.867767,218.749924 292.879913,220.543457 
	C295.052307,220.112396 297.743561,220.355423 299.316101,219.145050 
	C313.583832,208.163086 321.805634,193.586838 323.991974,175.713882 
	C324.738159,169.614258 325.051361,163.461670 325.595154,156.892563 
z"/>
<path fill="#242424" opacity="1.000000" stroke="none" 
	d="
M236.490967,343.226440 
	C250.776413,346.639282 262.010498,341.290833 270.925659,330.553864 
	C274.369598,326.406158 276.889069,324.792084 282.637787,327.107635 
	C298.176849,333.366791 312.275360,329.249023 323.953674,316.320374 
	C324.916840,315.254059 325.885376,314.192566 328.019257,311.842773 
	C326.538422,324.327362 332.311005,333.395294 336.048798,343.072968 
	C338.769165,350.116425 338.384308,356.968414 333.705017,362.927460 
	C315.237946,386.445129 290.996674,397.155273 261.224884,393.847595 
	C248.456009,392.428955 244.318619,387.016693 244.360214,374.169556 
	C244.394638,363.538910 242.095383,353.770752 235.904266,344.481110 
	C236.165298,343.659637 236.328140,343.443024 236.490967,343.226440 
z"/>
<path fill="#262626" opacity="1.000000" stroke="none" 
	d="
M230.714417,188.279800 
	C228.700027,183.698318 226.497101,179.558182 225.132523,175.158066 
	C222.987885,168.242584 225.360168,163.629608 231.918228,160.562149 
	C243.733627,155.035645 251.764771,156.271317 260.816620,165.639511 
	C272.932922,178.179291 284.807220,190.953064 296.759369,203.650955 
	C297.996094,204.964874 299.055695,206.445557 300.285553,207.957138 
	C292.867004,209.133392 285.686249,210.271927 277.481293,211.572876 
	C278.055603,206.078796 278.754486,200.564499 279.142578,195.028427 
	C279.273651,193.158234 278.617249,191.232864 278.320709,189.332703 
	C276.922455,190.834686 275.168488,192.144699 274.225281,193.892288 
	C273.267395,195.667068 273.109283,197.873520 272.250885,201.280151 
	C270.861572,198.069092 269.935577,196.077896 269.132355,194.038376 
	C267.856384,190.798721 266.844971,187.437561 265.322479,184.322891 
	C264.865784,183.388565 263.080658,183.103546 261.904114,182.521072 
	C261.499908,183.639328 260.678864,184.800659 260.788910,185.865784 
	C260.955292,187.475967 261.747314,189.027573 262.313721,190.589447 
	C267.414490,204.654999 272.789856,218.630188 277.449036,232.840302 
	C278.654266,236.516083 278.527527,241.192200 277.423462,244.940750 
	C275.317688,252.090439 267.913269,253.663940 263.022827,248.049622 
	C259.249359,243.717545 256.021729,238.743500 253.373566,233.629166 
	C245.661758,218.735504 238.362717,203.628128 230.714417,188.279800 
z"/>
<path fill="#252525" opacity="1.000000" stroke="none" 
	d="
M258.748901,251.483200 
	C261.981476,256.543854 262.914093,261.629150 261.198700,267.036713 
	C259.526215,272.309143 255.379166,274.717560 249.981232,273.631134 
	C242.687637,272.163208 237.183960,267.811707 233.359589,261.775726 
	C225.460495,249.308670 217.857254,236.645645 210.444885,223.881729 
	C205.779099,215.847305 201.677231,207.485245 197.331924,199.265106 
	C196.944687,198.532547 196.563828,197.785400 196.288696,197.006622 
	C194.341995,191.496460 191.673096,185.625961 196.082748,180.455215 
	C200.698486,175.042816 207.434479,173.846741 214.296112,174.271225 
	C217.679062,174.480484 219.600327,176.517807 221.185867,179.785004 
	C231.408722,200.850525 241.898651,221.787750 252.474609,242.679169 
	C254.027344,245.746399 256.502899,248.346466 258.748901,251.483200 
z"/>
<path fill="#252525" opacity="1.000000" stroke="none" 
	d="
M206.506012,227.572800 
	C215.109299,242.576782 222.532288,257.870697 233.898956,270.743469 
	C235.154938,272.165863 234.480515,276.100739 233.576492,278.434631 
	C232.193481,282.005066 229.119049,284.847748 225.053741,283.899048 
	C221.313080,283.026093 217.156219,281.552734 214.453552,278.998932 
	C195.521606,261.109955 180.754959,240.193161 170.496689,216.189117 
	C169.722946,214.378601 169.295593,212.387985 168.933640,210.439041 
	C167.201294,201.111145 170.476898,196.146027 179.645798,194.049759 
	C187.026291,192.362350 188.826004,193.563858 192.158493,200.359482 
	C196.618057,209.453537 201.571594,218.305374 206.506012,227.572800 
z"/>
<path fill="#242424" opacity="1.000000" stroke="none" 
	d="
M235.736343,344.183472 
	C235.627960,343.989655 235.785706,343.488556 236.217209,343.106934 
	C236.328140,343.443024 236.165298,343.659637 235.736343,344.183472 
z"/>
</svg>