<svg version="1.1" id="Layer_1" xmlns="http://www.w3.org/2000/svg" xmlns:xlink="http://www.w3.org/1999/xlink" x="0px" y="0px"
	 width="100%" viewBox="0 0 500 500" enable-background="new 0 0 500 500" xml:space="preserve">
<path fill="#DD4255" opacity="1.000000" stroke="none" 
	d="
M248.000000,501.000000 
	C165.333359,501.000000 83.166702,501.000000 1.000044,501.000000 
	C1.000029,334.333405 1.000029,167.666779 1.000015,1.000134 
	C167.666565,1.000089 334.333130,1.000089 500.999756,1.000045 
	C500.999847,167.666519 500.999847,334.333038 500.999939,500.999786 
	C416.833344,501.000000 332.666656,501.000000 248.000000,501.000000 
M324.153381,272.977692 
	C326.686035,268.107513 329.001007,263.108490 331.793091,258.391876 
	C339.486694,245.395172 344.972656,232.037384 342.824493,216.322525 
	C340.310211,197.928909 342.570404,179.818756 347.536896,161.966644 
	C349.359985,155.413391 350.923492,148.718414 351.774231,141.983093 
	C352.679871,134.813568 348.899231,131.073212 341.682770,130.805771 
	C334.926514,130.555389 329.288452,133.362122 324.628204,137.871399 
	C314.350922,147.815704 308.001160,159.796982 306.879364,174.268509 
	C306.557770,178.417465 306.371704,182.585449 305.837494,186.707657 
	C304.687347,195.583084 301.434174,203.536591 295.125092,210.508392 
	C294.026917,209.305511 293.273193,208.459717 292.498108,207.634003 
	C282.137970,196.597122 272.025391,185.313446 261.346039,174.594482 
	C249.307922,162.511703 231.491547,165.834778 224.897034,180.965576 
	C207.981903,181.159637 204.079437,183.541428 200.040649,195.880783 
	C196.164444,196.727585 192.198044,196.962723 188.834045,198.508682 
	C185.548309,200.018692 182.877518,202.866837 179.653824,205.345093 
	C170.162170,197.965897 160.561829,189.981339 150.390015,182.806992 
	C145.049896,179.040512 138.876938,176.269836 132.764801,173.843704 
	C128.188217,172.027084 123.926270,173.925964 120.812988,177.827103 
	C117.659676,181.778366 117.166100,186.264862 119.852982,190.383972 
	C122.914116,195.076843 126.115479,199.989044 130.307007,203.578476 
	C146.101700,217.104218 162.343124,230.107513 178.355743,243.380676 
	C179.966263,244.715668 181.571548,246.348862 182.485489,248.188354 
	C195.205093,273.789490 209.814590,298.071625 229.916214,318.735535 
	C237.324860,326.351410 242.188309,335.376526 241.644958,346.456085 
	C241.042801,358.734772 246.152618,365.280762 260.239044,367.097412 
	C280.640594,369.728424 298.440735,362.801849 313.467865,349.321075 
	C329.122925,335.277100 327.535126,326.250702 320.915985,313.105957 
	C316.971588,305.272827 316.490234,297.119843 318.834808,288.814972 
	C320.277161,283.705902 322.175110,278.725403 324.153381,272.977692 
z"/>
<path fill="#F0E1E3" opacity="1.000000" stroke="none" 
	d="
M324.010925,273.332428 
	C322.175110,278.725403 320.277161,283.705902 318.834808,288.814972 
	C316.490234,297.119843 316.971588,305.272827 320.915985,313.105957 
	C327.535126,326.250702 329.122925,335.277100 313.467865,349.321075 
	C298.440735,362.801849 280.640594,369.728424 260.239044,367.097412 
	C246.152618,365.280762 241.042801,358.734772 241.644958,346.456085 
	C242.188309,335.376526 237.324860,326.351410 229.916214,318.735535 
	C209.814590,298.071625 195.205093,273.789490 182.485489,248.188354 
	C181.571548,246.348862 179.966263,244.715668 178.355743,243.380676 
	C162.343124,230.107513 146.101700,217.104218 130.307007,203.578476 
	C126.115479,199.989044 122.914116,195.076843 119.852982,190.383972 
	C117.166100,186.264862 117.659676,181.778366 120.812988,177.827103 
	C123.926270,173.925964 128.188217,172.027084 132.764801,173.843704 
	C138.876938,176.269836 145.049896,179.040512 150.390015,182.806992 
	C160.561829,189.981339 170.162170,197.965897 179.653824,205.345093 
	C182.877518,202.866837 185.548309,200.018692 188.834045,198.508682 
	C192.198044,196.962723 196.164444,196.727585 200.040649,195.880783 
	C204.079437,183.541428 207.981903,181.159637 224.897034,180.965576 
	C231.491547,165.834778 249.307922,162.511703 261.346039,174.594482 
	C272.025391,185.313446 282.137970,196.597122 292.498108,207.634003 
	C293.273193,208.459717 294.026917,209.305511 295.125092,210.508392 
	C301.434174,203.536591 304.687347,195.583084 305.837494,186.707657 
	C306.371704,182.585449 306.557770,178.417465 306.879364,174.268509 
	C308.001160,159.796982 314.350922,147.815704 324.628204,137.871399 
	C329.288452,133.362122 334.926514,130.555389 341.682770,130.805771 
	C348.899231,131.073212 352.679871,134.813568 351.774231,141.983093 
	C350.923492,148.718414 349.359985,155.413391 347.536896,161.966644 
	C342.570404,179.818756 340.310211,197.928909 342.824493,216.322525 
	C344.972656,232.037384 339.486694,245.395172 331.793091,258.391876 
	C329.001007,263.108490 326.686035,268.107513 324.010925,273.332428 
M206.341660,282.086273 
	C213.802216,291.638092 220.435059,302.012543 228.918213,310.548065 
	C241.502426,323.209930 258.274994,320.129028 267.106232,304.459991 
	C265.440399,303.235687 263.598145,302.121918 262.091614,300.661743 
	C261.447632,300.037537 261.503601,298.691132 261.241516,297.672882 
	C262.292725,297.540680 263.575775,296.960327 264.351044,297.361450 
	C266.555664,298.502228 268.508667,300.116333 270.639465,301.414917 
	C283.030731,308.966766 294.513153,308.737946 303.826385,300.220612 
	C307.200653,297.134674 310.357300,293.405945 312.418213,289.361542 
	C319.812256,274.851288 326.512146,259.988342 333.842712,245.444351 
	C337.958130,237.279297 339.745453,228.876968 338.694061,219.854126 
	C336.210327,198.540115 338.283478,177.665634 344.355042,157.108490 
	C345.810516,152.180542 346.841858,147.085663 347.568695,141.996216 
	C348.258484,137.166321 346.230255,134.612122 341.485382,135.200027 
	C337.380981,135.708572 332.960938,137.121063 329.597229,139.455231 
	C322.004059,144.724335 316.827820,152.445648 314.342346,161.144226 
	C311.949799,169.517639 311.293365,178.404099 310.081909,187.094116 
	C308.153046,200.930450 301.841919,212.263885 290.969360,220.983551 
	C289.560760,222.113220 287.498657,222.427979 285.739258,223.120224 
	C285.739258,221.387283 285.739258,219.654327 285.739258,217.716782 
	C285.307739,217.659241 284.661163,217.463043 284.030701,217.505508 
	C274.653076,218.137207 273.213959,220.186264 276.016754,228.852417 
	C280.315674,242.144516 277.092407,248.731522 264.364258,252.665451 
	C265.069153,266.216003 258.045624,273.951874 242.767792,267.509094 
	C238.902618,276.184021 234.599533,279.575317 228.088425,277.796356 
	C224.387772,276.785248 220.543137,274.749939 217.803329,272.100403 
	C212.324219,266.801880 207.128998,261.083618 202.590744,254.964478 
	C192.983597,242.010788 183.373810,228.965408 180.070618,212.589401 
	C179.814758,211.320938 178.546600,210.063843 177.441757,209.189682 
	C167.784912,201.549118 158.228653,193.762619 148.276657,186.522308 
	C143.631470,183.142868 138.324844,180.541458 133.039108,178.223373 
	C129.932571,176.860977 126.448364,177.341232 124.027649,180.480530 
	C121.587257,183.645325 122.281288,187.013962 124.229050,189.779968 
	C127.082153,193.831635 130.099014,197.988480 133.847351,201.150742 
	C149.363297,214.240585 165.201950,226.947327 180.859421,239.870728 
	C182.739212,241.422272 184.659958,243.196777 185.841309,245.277039 
	C192.657303,257.279663 199.256699,269.405334 206.341660,282.086273 
M302.853638,306.439941 
	C292.532501,313.152100 282.001892,311.723358 271.325897,306.868958 
	C263.223419,317.805542 253.549652,325.172791 237.886810,321.589996 
	C243.454056,329.732361 245.979279,337.460297 245.958313,346.041656 
	C245.930679,357.355438 249.593491,361.969543 261.015259,362.927948 
	C284.062439,364.861755 303.035706,356.557922 317.544098,338.430115 
	C321.795166,333.118469 322.106354,327.235718 319.767303,320.988098 
	C317.010193,313.623932 314.399384,306.204987 311.745697,298.866638 
	C309.392395,300.886597 306.414459,303.442719 302.853638,306.439941 
M273.156525,214.089874 
	C273.615387,214.496796 274.144501,215.313660 274.522552,215.248871 
	C279.810608,214.342865 285.078094,213.316498 291.272552,212.145050 
	C284.473724,204.879807 278.159546,197.876022 271.557709,191.154770 
	C265.749176,185.241150 259.937103,179.252991 253.528366,174.032059 
	C248.552567,169.978500 237.823563,171.578766 232.581818,176.144455 
	C228.858322,179.387695 228.738693,184.163589 232.405106,191.778793 
	C236.370895,200.015839 240.282913,208.287354 244.552902,216.367050 
	C249.434525,225.604019 254.400986,234.826065 259.987366,243.638214 
	C261.276123,245.671097 265.662384,247.410736 267.851044,246.745361 
	C270.162292,246.042709 272.643066,242.481003 273.069336,239.847656 
	C273.619568,236.449112 272.706299,232.559174 271.542786,229.184433 
	C267.750916,218.186356 263.496216,207.348465 259.607361,196.382355 
	C259.172058,195.154861 259.937927,193.501419 260.146790,192.045502 
	C261.250244,193.000122 262.811249,193.742264 263.371613,194.949051 
	C265.079041,198.626068 266.400665,202.482239 268.281403,207.320801 
	C269.037720,204.329285 269.221985,202.467850 269.995575,200.896545 
	C270.621460,199.625214 271.956848,198.703201 272.977509,197.626251 
	C273.318329,199.029495 273.991486,200.445984 273.936157,201.833450 
	C273.784882,205.627472 273.326752,209.409241 273.156525,214.089874 
M229.997879,196.548630 
	C229.284805,195.047028 228.518326,193.568161 227.867920,192.039886 
	C225.020950,185.350418 222.542053,184.047455 215.631378,185.673782 
	C205.207672,188.126892 202.683090,193.149933 206.791595,203.295624 
	C207.228729,204.375092 207.676331,205.462479 208.247360,206.473755 
	C216.835480,221.682953 225.236893,237.004242 234.184601,251.999374 
	C236.665115,256.156342 240.383316,259.854492 244.249008,262.835541 
	C249.253510,266.694763 254.024750,266.600250 257.099365,263.851746 
	C260.425690,260.878235 261.035278,254.498199 258.411255,249.429123 
	C257.804321,248.256683 256.976135,247.199326 256.257294,246.084167 
	C253.829468,242.317963 251.077637,238.717728 249.040115,234.750778 
	C242.654144,222.317795 236.537857,209.746307 229.997879,196.548630 
M185.552475,217.487289 
	C193.404709,237.312881 205.611801,254.202042 220.723297,269.044556 
	C222.889191,271.171906 225.939606,272.693146 228.856140,273.684601 
	C232.230057,274.831573 235.040985,273.160980 236.782974,270.049438 
	C238.199524,267.519196 239.129379,265.196808 236.805588,262.328461 
	C222.659393,244.867325 213.095856,224.661591 202.991699,204.811783 
	C201.553360,201.986099 200.125183,200.770264 197.064911,200.809189 
	C187.190765,200.934738 183.383362,205.973160 185.552475,217.487289 
M287.112335,217.610336 
	C287.273773,217.625244 287.435211,217.640137 287.596649,217.655045 
	C287.523529,217.567383 287.450409,217.479706 287.112335,217.610336 
z"/>
<path fill="#DD4457" opacity="1.000000" stroke="none" 
	d="
M206.135559,281.787781 
	C199.256699,269.405334 192.657303,257.279663 185.841309,245.277039 
	C184.659958,243.196777 182.739212,241.422272 180.859421,239.870728 
	C165.201950,226.947327 149.363297,214.240585 133.847351,201.150742 
	C130.099014,197.988480 127.082153,193.831635 124.229050,189.779968 
	C122.281288,187.013962 121.587257,183.645325 124.027649,180.480530 
	C126.448364,177.341232 129.932571,176.860977 133.039108,178.223373 
	C138.324844,180.541458 143.631470,183.142868 148.276657,186.522308 
	C158.228653,193.762619 167.784912,201.549118 177.441757,209.189682 
	C178.546600,210.063843 179.814758,211.320938 180.070618,212.589401 
	C183.373810,228.965408 192.983597,242.010788 202.590744,254.964478 
	C207.128998,261.083618 212.324219,266.801880 217.803329,272.100403 
	C220.543137,274.749939 224.387772,276.785248 228.088425,277.796356 
	C234.599533,279.575317 238.902618,276.184021 242.767792,267.509094 
	C258.045624,273.951874 265.069153,266.216003 264.364258,252.665451 
	C277.092407,248.731522 280.315674,242.144516 276.016754,228.852417 
	C273.213959,220.186264 274.653076,218.137207 284.030701,217.505508 
	C284.661163,217.463043 285.307739,217.659241 285.739258,217.716782 
	C285.739258,219.654327 285.739258,221.387283 285.739258,223.120209 
	C287.498657,222.427979 289.560760,222.113220 290.969360,220.983551 
	C301.841919,212.263885 308.153046,200.930450 310.081909,187.094116 
	C311.293365,178.404099 311.949799,169.517639 314.342346,161.144226 
	C316.827820,152.445648 322.004059,144.724335 329.597229,139.455231 
	C332.960938,137.121063 337.380981,135.708572 341.485382,135.200027 
	C346.230255,134.612122 348.258484,137.166321 347.568695,141.996216 
	C346.841858,147.085663 345.810516,152.180542 344.355042,157.108490 
	C338.283478,177.665634 336.210327,198.540115 338.694061,219.854126 
	C339.745453,228.876968 337.958130,237.279297 333.842712,245.444351 
	C326.512146,259.988342 319.812256,274.851288 312.418213,289.361542 
	C310.357300,293.405945 307.200653,297.134674 303.826385,300.220612 
	C294.513153,308.737946 283.030731,308.966766 270.639465,301.414917 
	C268.508667,300.116333 266.555664,298.502228 264.351044,297.361450 
	C263.575775,296.960327 262.292725,297.540680 261.241516,297.672913 
	C261.503601,298.691132 261.447632,300.037537 262.091614,300.661743 
	C263.598145,302.121918 265.440399,303.235687 267.106232,304.459991 
	C258.274994,320.129028 241.502426,323.209930 228.918213,310.548065 
	C220.435059,302.012543 213.802216,291.638092 206.135559,281.787781 
z"/>
<path fill="#DD4457" opacity="1.000000" stroke="none" 
	d="
M303.145081,306.219421 
	C306.414459,303.442719 309.392395,300.886597 311.745697,298.866638 
	C314.399384,306.204987 317.010193,313.623932 319.767303,320.988098 
	C322.106354,327.235718 321.795166,333.118469 317.544098,338.430115 
	C303.035706,356.557922 284.062439,364.861755 261.015259,362.927948 
	C249.593491,361.969543 245.930679,357.355438 245.958313,346.041656 
	C245.979279,337.460297 243.454056,329.732361 237.886810,321.589996 
	C253.549652,325.172791 263.223419,317.805542 271.325897,306.868958 
	C282.001892,311.723358 292.532501,313.152100 303.145081,306.219421 
z"/>
<path fill="#DD4658" opacity="1.000000" stroke="none" 
	d="
M273.073334,213.642868 
	C273.326752,209.409241 273.784882,205.627472 273.936157,201.833450 
	C273.991486,200.445984 273.318329,199.029495 272.977509,197.626251 
	C271.956848,198.703201 270.621460,199.625214 269.995575,200.896545 
	C269.221985,202.467850 269.037720,204.329285 268.281403,207.320801 
	C266.400665,202.482239 265.079041,198.626068 263.371613,194.949051 
	C262.811249,193.742264 261.250244,193.000122 260.146790,192.045502 
	C259.937927,193.501419 259.172058,195.154861 259.607361,196.382355 
	C263.496216,207.348465 267.750916,218.186356 271.542786,229.184433 
	C272.706299,232.559174 273.619568,236.449112 273.069336,239.847656 
	C272.643066,242.481003 270.162292,246.042709 267.851044,246.745361 
	C265.662384,247.410736 261.276123,245.671097 259.987366,243.638214 
	C254.400986,234.826065 249.434525,225.604019 244.552902,216.367050 
	C240.282913,208.287354 236.370895,200.015839 232.405106,191.778793 
	C228.738693,184.163589 228.858322,179.387695 232.581818,176.144455 
	C237.823563,171.578766 248.552567,169.978500 253.528366,174.032059 
	C259.937103,179.252991 265.749176,185.241150 271.557709,191.154770 
	C278.159546,197.876022 284.473724,204.879807 291.272552,212.145050 
	C285.078094,213.316498 279.810608,214.342865 274.522552,215.248871 
	C274.144501,215.313660 273.615387,214.496796 273.073334,213.642868 
z"/>
<path fill="#DD4557" opacity="1.000000" stroke="none" 
	d="
M230.157501,196.888550 
	C236.537857,209.746307 242.654144,222.317795 249.040115,234.750778 
	C251.077637,238.717728 253.829468,242.317963 256.257294,246.084167 
	C256.976135,247.199326 257.804321,248.256683 258.411255,249.429123 
	C261.035278,254.498199 260.425690,260.878235 257.099365,263.851746 
	C254.024750,266.600250 249.253510,266.694763 244.249008,262.835541 
	C240.383316,259.854492 236.665115,256.156342 234.184601,251.999374 
	C225.236893,237.004242 216.835480,221.682953 208.247360,206.473755 
	C207.676331,205.462479 207.228729,204.375092 206.791595,203.295624 
	C202.683090,193.149933 205.207672,188.126892 215.631378,185.673782 
	C222.542053,184.047455 225.020950,185.350418 227.867920,192.039886 
	C228.518326,193.568161 229.284805,195.047028 230.157501,196.888550 
z"/>
<path fill="#DD4558" opacity="1.000000" stroke="none" 
	d="
M185.390076,217.097626 
	C183.383362,205.973160 187.190765,200.934738 197.064911,200.809189 
	C200.125183,200.770264 201.553360,201.986099 202.991699,204.811783 
	C213.095856,224.661591 222.659393,244.867325 236.805588,262.328461 
	C239.129379,265.196808 238.199524,267.519196 236.782974,270.049438 
	C235.040985,273.160980 232.230057,274.831573 228.856140,273.684601 
	C225.939606,272.693146 222.889191,271.171906 220.723297,269.044556 
	C205.611801,254.202042 193.404709,237.312881 185.390076,217.097626 
z"/>
<path fill="#DD4457" opacity="1.000000" stroke="none" 
	d="
M287.244812,217.501190 
	C287.450409,217.479706 287.523529,217.567383 287.596649,217.655045 
	C287.435211,217.640137 287.273773,217.625244 287.244812,217.501190 
z"/>
</svg>