<svg version="1.1" id="Layer_1" xmlns="http://www.w3.org/2000/svg" xmlns:xlink="http://www.w3.org/1999/xlink" x="0px" y="0px"
	 width="100%" viewBox="0 0 500 500" enable-background="new 0 0 500 500" xml:space="preserve">
<path fill="#222222" opacity="1.000000" stroke="none" 
	d="
M248.000000,501.000000 
	C165.333359,501.000000 83.166702,501.000000 1.000044,501.000000 
	C1.000029,334.333405 1.000029,167.666779 1.000015,1.000134 
	C167.666565,1.000089 334.333130,1.000089 500.999756,1.000045 
	C500.999847,167.666519 500.999847,334.333038 500.999939,500.999786 
	C416.833344,501.000000 332.666656,501.000000 248.000000,501.000000 
M290.072388,363.433105 
	C297.511932,359.114594 305.774048,355.765442 312.229706,350.287445 
	C328.597992,336.397888 328.080780,327.205750 320.955994,313.203461 
	C316.894501,305.221375 316.093079,296.765808 319.013153,288.485657 
	C322.422760,278.817413 325.887634,268.954071 331.005646,260.150421 
	C339.900604,244.849960 344.840820,229.424820 342.604492,211.279373 
	C341.224945,200.085632 342.729004,188.347809 344.276276,177.037247 
	C345.711060,166.548447 349.178467,156.354446 351.286377,145.936646 
	C353.775146,133.636642 346.890930,127.776093 334.884369,131.848312 
	C331.818451,132.888168 328.441315,134.338806 326.343475,136.637650 
	C321.460358,141.988586 316.810638,147.676849 312.905457,153.766525 
	C307.135132,162.764816 306.780426,173.264084 306.156982,183.586990 
	C305.548309,193.665054 302.014923,202.568100 295.197968,210.638428 
	C293.789490,209.045242 292.656128,207.658340 291.414978,206.375732 
	C280.097870,194.680252 269.428009,182.243057 257.229523,171.550812 
	C246.691635,162.314102 229.814041,168.064499 225.032837,181.117996 
	C208.904419,180.495255 202.885651,184.208160 200.136215,196.552582 
	C192.083969,196.277130 184.952026,198.089584 180.472488,205.986801 
	C170.412415,198.164963 160.706116,190.065948 150.396393,182.826248 
	C144.925171,178.984253 138.572632,176.210495 132.304733,173.753494 
	C127.902000,172.027664 123.823273,174.070969 120.843094,177.773102 
	C117.831970,181.513626 117.046638,185.838806 119.611786,189.841507 
	C122.718559,194.689362 125.934250,199.803787 130.227356,203.494919 
	C146.111816,217.152008 162.480438,230.245102 178.600464,243.630432 
	C180.199493,244.958221 181.726181,246.643692 182.641098,248.483978 
	C195.278336,273.903320 209.756943,298.046326 229.759644,318.526245 
	C237.877411,326.837708 242.093353,336.736176 241.825989,348.660583 
	C241.604050,358.559082 245.565887,363.210144 255.044525,366.049622 
	C266.763031,369.560089 278.105438,367.380829 290.072388,363.433105 
z"/>
<path fill="#E2DFDF" opacity="1.000000" stroke="none" 
	d="
M289.706970,363.574707 
	C278.105438,367.380829 266.763031,369.560089 255.044525,366.049622 
	C245.565887,363.210144 241.604050,358.559082 241.825989,348.660583 
	C242.093353,336.736176 237.877411,326.837708 229.759644,318.526245 
	C209.756943,298.046326 195.278336,273.903320 182.641098,248.483978 
	C181.726181,246.643692 180.199493,244.958221 178.600464,243.630432 
	C162.480438,230.245102 146.111816,217.152008 130.227356,203.494919 
	C125.934250,199.803787 122.718559,194.689362 119.611786,189.841507 
	C117.046638,185.838806 117.831970,181.513626 120.843094,177.773102 
	C123.823273,174.070969 127.902000,172.027664 132.304733,173.753494 
	C138.572632,176.210495 144.925171,178.984253 150.396393,182.826248 
	C160.706116,190.065948 170.412415,198.164963 180.472488,205.986801 
	C184.952026,198.089584 192.083969,196.277130 200.136215,196.552582 
	C202.885651,184.208160 208.904419,180.495255 225.032837,181.117996 
	C229.814041,168.064499 246.691635,162.314102 257.229523,171.550812 
	C269.428009,182.243057 280.097870,194.680252 291.414978,206.375732 
	C292.656128,207.658340 293.789490,209.045242 295.197968,210.638428 
	C302.014923,202.568100 305.548309,193.665054 306.156982,183.586990 
	C306.780426,173.264084 307.135132,162.764816 312.905457,153.766525 
	C316.810638,147.676849 321.460358,141.988586 326.343475,136.637650 
	C328.441315,134.338806 331.818451,132.888168 334.884369,131.848312 
	C346.890930,127.776093 353.775146,133.636642 351.286377,145.936646 
	C349.178467,156.354446 345.711060,166.548447 344.276276,177.037247 
	C342.729004,188.347809 341.224945,200.085632 342.604492,211.279373 
	C344.840820,229.424820 339.900604,244.849960 331.005646,260.150421 
	C325.887634,268.954071 322.422760,278.817413 319.013153,288.485657 
	C316.093079,296.765808 316.894501,305.221375 320.955994,313.203461 
	C328.080780,327.205750 328.597992,336.397888 312.229706,350.287445 
	C305.774048,355.765442 297.511932,359.114594 289.706970,363.574707 
M270.955444,301.658569 
	C280.654541,306.888245 290.743347,309.851776 300.498077,302.653381 
	C305.163239,299.210785 309.545471,294.533508 312.254822,289.454681 
	C319.753479,275.398132 326.018280,260.688263 333.333221,246.527161 
	C338.116486,237.267181 339.672943,227.797546 338.561646,217.572678 
	C336.600708,199.530640 337.758453,181.702438 342.584930,164.125320 
	C344.562653,156.922882 346.235962,149.613251 347.569153,142.265533 
	C348.486603,137.209106 346.321686,134.551392 341.325317,135.182587 
	C337.228973,135.700089 332.836243,137.188461 329.475708,139.535965 
	C322.055206,144.719635 316.921082,152.281448 314.471619,160.789215 
	C312.019989,169.304550 311.320557,178.342422 310.073547,187.182358 
	C308.097260,201.191696 301.636597,212.595795 290.552887,221.327713 
	C289.254852,222.350342 287.352448,222.605850 285.730194,223.216980 
	C285.591827,221.551468 285.453430,219.885941 285.306274,218.114410 
	C284.750519,218.089157 284.090698,218.040405 283.430359,218.032013 
	C274.820953,217.922516 273.137482,220.092987 275.713745,227.901245 
	C276.286743,229.637848 276.838196,231.395706 277.205719,233.183624 
	C279.436035,244.033401 275.163666,250.344009 264.304413,252.335983 
	C265.301056,267.723053 256.314056,273.721893 242.682159,267.357819 
	C239.044098,276.802368 233.455658,280.248657 225.862915,277.181244 
	C222.706619,275.906128 219.393723,274.068237 217.185043,271.572174 
	C209.933105,263.376709 202.615677,255.141174 196.336075,246.209091 
	C189.099625,235.915955 182.137665,225.264008 180.028976,212.355804 
	C179.829376,211.134048 178.392120,209.950180 177.276840,209.068130 
	C167.757599,201.539536 158.331238,193.878693 148.552338,186.699799 
	C144.044693,183.390625 138.969818,180.718903 133.854645,178.420105 
	C130.451309,176.890594 126.616501,176.997345 123.946182,180.562561 
	C121.418274,183.937653 122.429260,187.368668 124.520035,190.256927 
	C127.326355,194.133667 130.249390,198.125656 133.873154,201.176239 
	C149.393600,214.241760 165.238495,226.921249 180.832718,239.900528 
	C183.164078,241.840958 185.134491,244.425262 186.686325,247.056976 
	C194.951523,261.073700 202.355392,275.653748 211.409012,289.130829 
	C217.526855,298.237732 224.901489,307.086670 233.467865,313.819427 
	C245.135529,322.989655 261.224792,317.609985 266.984131,304.226837 
	C265.364685,303.100494 263.594147,302.105072 262.148712,300.760223 
	C261.467468,300.126404 261.410370,298.821716 261.070465,297.821014 
	C262.230042,297.654816 263.624481,296.999115 264.502167,297.420349 
	C266.579407,298.417175 268.411133,299.925568 270.955444,301.658569 
M311.697418,345.209656 
	C318.397003,338.671051 323.786652,331.728516 319.927673,321.472290 
	C317.057922,313.845276 314.393799,306.140930 311.649109,298.501678 
	C300.987030,311.587830 287.297150,314.651581 271.354065,306.792450 
	C263.143402,317.953400 253.388153,325.305420 237.470474,321.442078 
	C244.874023,330.863556 246.240799,340.431396 246.044373,350.440521 
	C245.953918,355.050476 248.181900,358.500946 252.372772,360.308228 
	C255.237793,361.543732 258.309021,362.729980 261.372284,363.006897 
	C280.528351,364.738281 296.967682,358.355743 311.697418,345.209656 
M282.886108,213.331512 
	C285.452698,213.181442 288.019318,213.031387 291.900482,212.804459 
	C284.497589,204.920410 277.967712,197.701965 271.140808,190.776245 
	C265.329651,184.881027 259.494629,178.928513 253.069168,173.746506 
	C248.341614,169.933823 237.677246,171.728455 232.562180,176.151001 
	C228.936615,179.285721 228.711517,184.110199 232.165680,191.315353 
	C236.326813,199.995193 240.479050,208.688568 244.978516,217.194427 
	C249.779251,226.269821 254.746002,235.280289 260.192322,243.973221 
	C261.373901,245.859161 265.263977,247.576614 267.258301,247.025589 
	C269.583099,246.383224 272.333130,243.406952 272.843842,241.006302 
	C273.557922,237.649780 273.005890,233.674957 271.881348,230.340408 
	C268.221924,219.488937 263.957886,208.842545 260.181000,198.028336 
	C259.548981,196.218765 260.184723,193.966446 260.234680,191.918701 
	C261.480988,193.381531 263.085846,194.670380 263.897919,196.343887 
	C265.521484,199.689758 266.710785,203.246368 268.399261,207.526871 
	C269.074341,204.528275 269.235474,202.463638 270.041199,200.692169 
	C270.609650,199.442352 272.052612,198.590302 273.105133,197.560654 
	C273.403473,198.983063 274.026337,200.425430 273.940308,201.824203 
	C273.664124,206.313858 273.125916,210.787384 272.637238,215.795425 
	C276.613647,214.818436 279.317749,214.154068 282.886108,213.331512 
M215.520645,185.723724 
	C204.912399,188.670639 202.661713,193.214355 206.797379,203.354431 
	C207.048233,203.969467 207.335526,204.574799 207.661453,205.153305 
	C216.621979,221.056595 225.326721,237.113861 234.725815,252.753830 
	C237.347427,257.116150 241.696213,260.684235 245.868515,263.789093 
	C248.875336,266.026672 252.955002,267.069946 256.584808,264.248169 
	C260.207642,261.431854 260.610016,257.340424 259.731354,253.367645 
	C259.147491,250.727737 257.467987,248.280685 256.039978,245.890076 
	C254.430374,243.195496 252.253021,240.813187 250.841293,238.031784 
	C243.103195,222.786148 235.393646,207.522873 227.949860,192.132385 
	C224.604355,185.215347 224.179764,184.659683 215.520645,185.723724 
M231.993118,256.528748 
	C222.140900,238.895386 212.297104,221.257278 202.412735,203.641968 
	C201.892456,202.714783 200.900711,201.192230 200.343887,201.282074 
	C196.047989,201.975296 191.462631,202.286591 187.645325,204.124878 
	C184.041351,205.860428 183.695724,210.063782 184.798386,213.853424 
	C185.856918,217.491486 186.875519,221.206131 188.506378,224.601471 
	C195.815109,239.817825 205.545395,253.421707 217.151291,265.622833 
	C220.057434,268.678009 223.755310,271.156219 227.468369,273.216431 
	C230.944168,275.144989 234.211197,273.930542 236.498535,270.520172 
	C238.673111,267.277924 239.311295,264.257629 235.897186,261.311798 
	C234.538666,260.139618 233.554276,258.533875 231.993118,256.528748 
z"/>
<path fill="#252525" opacity="1.000000" stroke="none" 
	d="
M270.648804,301.442871 
	C268.411133,299.925568 266.579407,298.417175 264.502167,297.420349 
	C263.624481,296.999115 262.230042,297.654816 261.070465,297.821045 
	C261.410370,298.821716 261.467468,300.126404 262.148712,300.760223 
	C263.594147,302.105072 265.364685,303.100494 266.984131,304.226837 
	C261.224792,317.609985 245.135529,322.989655 233.467865,313.819427 
	C224.901489,307.086670 217.526855,298.237732 211.409012,289.130829 
	C202.355392,275.653748 194.951523,261.073700 186.686325,247.056976 
	C185.134491,244.425262 183.164078,241.840958 180.832718,239.900528 
	C165.238495,226.921249 149.393600,214.241760 133.873154,201.176239 
	C130.249390,198.125656 127.326355,194.133667 124.520035,190.256927 
	C122.429260,187.368668 121.418274,183.937653 123.946182,180.562561 
	C126.616501,176.997345 130.451309,176.890594 133.854645,178.420105 
	C138.969818,180.718903 144.044693,183.390625 148.552338,186.699799 
	C158.331238,193.878693 167.757599,201.539536 177.276840,209.068130 
	C178.392120,209.950180 179.829376,211.134048 180.028976,212.355804 
	C182.137665,225.264008 189.099625,235.915955 196.336075,246.209091 
	C202.615677,255.141174 209.933105,263.376709 217.185043,271.572174 
	C219.393723,274.068237 222.706619,275.906128 225.862915,277.181244 
	C233.455658,280.248657 239.044098,276.802368 242.682159,267.357819 
	C256.314056,273.721893 265.301056,267.723053 264.304413,252.335983 
	C275.163666,250.344009 279.436035,244.033401 277.205719,233.183624 
	C276.838196,231.395706 276.286743,229.637848 275.713745,227.901245 
	C273.137482,220.092987 274.820953,217.922516 283.430359,218.032013 
	C284.090698,218.040405 284.750519,218.089157 285.306274,218.114410 
	C285.453430,219.885941 285.591827,221.551468 285.730194,223.216980 
	C287.352448,222.605850 289.254852,222.350342 290.552887,221.327713 
	C301.636597,212.595795 308.097260,201.191696 310.073547,187.182358 
	C311.320557,178.342422 312.019989,169.304550 314.471619,160.789215 
	C316.921082,152.281448 322.055206,144.719635 329.475708,139.535965 
	C332.836243,137.188461 337.228973,135.700089 341.325317,135.182587 
	C346.321686,134.551392 348.486603,137.209106 347.569153,142.265533 
	C346.235962,149.613251 344.562653,156.922882 342.584930,164.125320 
	C337.758453,181.702438 336.600708,199.530640 338.561646,217.572678 
	C339.672943,227.797546 338.116486,237.267181 333.333221,246.527161 
	C326.018280,260.688263 319.753479,275.398132 312.254822,289.454681 
	C309.545471,294.533508 305.163239,299.210785 300.498077,302.653381 
	C290.743347,309.851776 280.654541,306.888245 270.648804,301.442871 
z"/>
<path fill="#242424" opacity="1.000000" stroke="none" 
	d="
M311.439819,345.458862 
	C296.967682,358.355743 280.528351,364.738281 261.372284,363.006897 
	C258.309021,362.729980 255.237793,361.543732 252.372772,360.308228 
	C248.181900,358.500946 245.953918,355.050476 246.044373,350.440521 
	C246.240799,340.431396 244.874023,330.863556 237.470474,321.442078 
	C253.388153,325.305420 263.143402,317.953400 271.354065,306.792450 
	C287.297150,314.651581 300.987030,311.587830 311.649109,298.501678 
	C314.393799,306.140930 317.057922,313.845276 319.927673,321.472290 
	C323.786652,331.728516 318.397003,338.671051 311.439819,345.458862 
z"/>
<path fill="#262626" opacity="1.000000" stroke="none" 
	d="
M282.453979,213.410614 
	C279.317749,214.154068 276.613647,214.818436 272.637238,215.795425 
	C273.125916,210.787384 273.664124,206.313858 273.940308,201.824203 
	C274.026337,200.425430 273.403473,198.983063 273.105133,197.560654 
	C272.052612,198.590302 270.609650,199.442352 270.041199,200.692169 
	C269.235474,202.463638 269.074341,204.528275 268.399261,207.526871 
	C266.710785,203.246368 265.521484,199.689758 263.897919,196.343887 
	C263.085846,194.670380 261.480988,193.381531 260.234680,191.918701 
	C260.184723,193.966446 259.548981,196.218765 260.181000,198.028336 
	C263.957886,208.842545 268.221924,219.488937 271.881348,230.340408 
	C273.005890,233.674957 273.557922,237.649780 272.843842,241.006302 
	C272.333130,243.406952 269.583099,246.383224 267.258301,247.025589 
	C265.263977,247.576614 261.373901,245.859161 260.192322,243.973221 
	C254.746002,235.280289 249.779251,226.269821 244.978516,217.194427 
	C240.479050,208.688568 236.326813,199.995193 232.165680,191.315353 
	C228.711517,184.110199 228.936615,179.285721 232.562180,176.151001 
	C237.677246,171.728455 248.341614,169.933823 253.069168,173.746506 
	C259.494629,178.928513 265.329651,184.881027 271.140808,190.776245 
	C277.967712,197.701965 284.497589,204.920410 291.900482,212.804459 
	C288.019318,213.031387 285.452698,213.181442 282.453979,213.410614 
z"/>
<path fill="#252525" opacity="1.000000" stroke="none" 
	d="
M215.897522,185.571136 
	C224.179764,184.659683 224.604355,185.215347 227.949860,192.132385 
	C235.393646,207.522873 243.103195,222.786148 250.841293,238.031784 
	C252.253021,240.813187 254.430374,243.195496 256.039978,245.890076 
	C257.467987,248.280685 259.147491,250.727737 259.731354,253.367645 
	C260.610016,257.340424 260.207642,261.431854 256.584808,264.248169 
	C252.955002,267.069946 248.875336,266.026672 245.868515,263.789093 
	C241.696213,260.684235 237.347427,257.116150 234.725815,252.753830 
	C225.326721,237.113861 216.621979,221.056595 207.661453,205.153305 
	C207.335526,204.574799 207.048233,203.969467 206.797379,203.354431 
	C202.661713,193.214355 204.912399,188.670639 215.897522,185.571136 
z"/>
<path fill="#262626" opacity="1.000000" stroke="none" 
	d="
M232.196350,256.827118 
	C233.554276,258.533875 234.538666,260.139618 235.897186,261.311798 
	C239.311295,264.257629 238.673111,267.277924 236.498535,270.520172 
	C234.211197,273.930542 230.944168,275.144989 227.468369,273.216431 
	C223.755310,271.156219 220.057434,268.678009 217.151291,265.622833 
	C205.545395,253.421707 195.815109,239.817825 188.506378,224.601471 
	C186.875519,221.206131 185.856918,217.491486 184.798386,213.853424 
	C183.695724,210.063782 184.041351,205.860428 187.645325,204.124878 
	C191.462631,202.286591 196.047989,201.975296 200.343887,201.282074 
	C200.900711,201.192230 201.892456,202.714783 202.412735,203.641968 
	C212.297104,221.257278 222.140900,238.895386 232.196350,256.827118 
z"/>
</svg>